# xmcd
#
# Track frame offsets: 
#        150
#        17054
#        33323
#        49857
#        65125
#        84481
#        99613
#        113444
#        127401
#        144492
#        160501
#        175190
#        183674
#
# Disc length: 2683 seconds
#
# Revision: 0
# Processed by: cddbd v1.5.2PL0 Copyright (c) Steve Scherf et al.
# Submitted via: ExactAudioCopy v0.99pb4
#
DISCID=b00a790d
DTITLE=Backyard Babies - Backyard Babies
DYEAR=2008
DGENRE=Rock
TTITLE0=Fuck off and die
TTITLE1=Degenerated
TTITLE2=Come undone
TTITLE3=Drool
TTITLE4=Abandon
TTITLE5=Voodoo love bow
TTITLE6=Idiots
TTITLE7=The ship
TTITLE8=Nomadic
TTITLE9=Back on the juice
TTITLE10=Where were you?
TTITLE11=Zoe is a weirdo
TTITLE12=Saved by the bell
EXTD=
EXTT0=
EXTT1=
EXTT2=
EXTT3=
EXTT4=
EXTT5=
EXTT6=
EXTT7=
EXTT8=
EXTT9=
EXTT10=
EXTT11=
EXTT12=
PLAYORDER=
